<svg xmlns="http://www.w3.org/2000/svg" xmlns:xlink="http://www.w3.org/1999/xlink" contentStyleType="text/css" data-diagram-type="SEQUENCE" height="992px" preserveAspectRatio="none" style="width:559px;height:992px;background:#FFFFFF;" version="1.1" viewBox="0 0 559 992" width="559px" zoomAndPan="magnify"><?plantuml 1.2026.3beta6?><defs/><g><g class="title" data-source-line="1"><text fill="#000000" font-family="sans-serif" font-size="14" font-weight="700" lengthAdjust="spacing" textLength="282.0713" x="135.0449" y="27.9951">Godley &amp; Lavoie (2007) - Model SIM</text><text fill="#000000" font-family="sans-serif" font-size="14" font-weight="700" lengthAdjust="spacing" textLength="500.6914" x="25.7349" y="44.292">Simplest Stock-Flow Consistent Model with Government Money</text></g><g class="participant-lifeline" data-entity-uid="part1" data-qualified-name="Households" data-source-line="3" id="part1-lifeline"><g><title>Households</title><rect fill="#000000" fill-opacity="0.00000" height="775.7188" width="8" x="45.6909" y="134.8906"/><line style="stroke:#181818;stroke-width:0.5;stroke-dasharray:5,5;" x1="49" x2="49" y1="134.8906" y2="910.6094"/></g></g><g class="participant-lifeline" data-entity-uid="part2" data-qualified-name="Firms" data-source-line="4" id="part2-lifeline"><g><title>Firms</title><rect fill="#000000" fill-opacity="0.00000" height="775.7188" width="8" x="246.1431" y="134.8906"/><line style="stroke:#181818;stroke-width:0.5;stroke-dasharray:5,5;" x1="249.8281" x2="249.8281" y1="134.8906" y2="910.6094"/></g></g><g class="participant-lifeline" data-entity-uid="part3" data-qualified-name="Government" data-source-line="5" id="part3-lifeline"><g><title>Government</title><rect fill="#000000" fill-opacity="0.00000" height="775.7188" width="8" x="493.3838" y="134.8906"/><line style="stroke:#181818;stroke-width:0.5;stroke-dasharray:5,5;" x1="496.6064" x2="496.6064" y1="134.8906" y2="910.6094"/></g></g><g class="participant participant-head" data-entity-uid="part1" data-qualified-name="Households" data-source-line="3" id="part1-head"><text fill="#000000" font-family="sans-serif" font-size="14" lengthAdjust="spacing" textLength="81.3818" x="6" y="131.5889">Households</text><ellipse cx="49.6909" cy="67.0938" fill="#E2E2F0" rx="8" ry="8" style="stroke:#181818;stroke-width:0.5;"/><path d="M49.6909,75.0938 L49.6909,102.0938 M36.6909,83.0938 L62.6909,83.0938 M49.6909,102.0938 L36.6909,117.0938 M49.6909,102.0938 L62.6909,117.0938" fill="none" style="stroke:#181818;stroke-width:0.5;"/></g><g class="participant participant-tail" data-entity-uid="part1" data-qualified-name="Households" data-source-line="3" id="part1-tail"><text fill="#000000" font-family="sans-serif" font-size="14" lengthAdjust="spacing" textLength="81.3818" x="6" y="922.6045">Households</text><ellipse cx="49.6909" cy="934.4063" fill="#E2E2F0" rx="8" ry="8" style="stroke:#181818;stroke-width:0.5;"/><path d="M49.6909,942.4063 L49.6909,969.4063 M36.6909,950.4063 L62.6909,950.4063 M49.6909,969.4063 L36.6909,984.4063 M49.6909,969.4063 L62.6909,984.4063" fill="none" style="stroke:#181818;stroke-width:0.5;"/></g><g class="participant participant-head" data-entity-uid="part2" data-qualified-name="Firms" data-source-line="4" id="part2-head"><rect fill="#E2E2F0" height="30.2969" rx="2.5" ry="2.5" style="stroke:#181818;stroke-width:0.5;" width="52.6299" x="223.8281" y="103.5938"/><text fill="#000000" font-family="sans-serif" font-size="14" lengthAdjust="spacing" textLength="38.6299" x="230.8281" y="123.5889">Firms</text></g><g class="participant participant-tail" data-entity-uid="part2" data-qualified-name="Firms" data-source-line="4" id="part2-tail"><rect fill="#E2E2F0" height="30.2969" rx="2.5" ry="2.5" style="stroke:#181818;stroke-width:0.5;" width="52.6299" x="223.8281" y="909.6094"/><text fill="#000000" font-family="sans-serif" font-size="14" lengthAdjust="spacing" textLength="38.6299" x="230.8281" y="929.6045">Firms</text></g><g class="participant participant-head" data-entity-uid="part3" data-qualified-name="Government" data-source-line="5" id="part3-head"><rect fill="#E2E2F0" height="30.2969" rx="2.5" ry="2.5" style="stroke:#181818;stroke-width:0.5;" width="101.5547" x="446.6064" y="103.5938"/><text fill="#000000" font-family="sans-serif" font-size="14" lengthAdjust="spacing" textLength="87.5547" x="453.6064" y="123.5889">Government</text></g><g class="participant participant-tail" data-entity-uid="part3" data-qualified-name="Government" data-source-line="5" id="part3-tail"><rect fill="#E2E2F0" height="30.2969" rx="2.5" ry="2.5" style="stroke:#181818;stroke-width:0.5;" width="101.5547" x="446.6064" y="909.6094"/><text fill="#000000" font-family="sans-serif" font-size="14" lengthAdjust="spacing" textLength="87.5547" x="453.6064" y="929.6045">Government</text></g><rect fill="#EEEEEE" height="3" style="stroke:#EEEEEE;stroke-width:1;" width="553.1611" x="0" y="165.457"/><line style="stroke:#000000;stroke-width:1;" x1="0" x2="553.1611" y1="165.457" y2="165.457"/><line style="stroke:#000000;stroke-width:1;" x1="0" x2="553.1611" y1="168.457" y2="168.457"/><rect fill="#EEEEEE" height="23.1328" style="stroke:#000000;stroke-width:2;" width="316.8975" x="118.1318" y="154.8906"/><text fill="#000000" font-family="sans-serif" font-size="13" font-weight="700" lengthAdjust="spacing" textLength="298.3716" x="124.1318" y="170.9575">1. Government Expenditure (exogenous)</text><g class="message" data-entity-1="part3" data-entity-2="part2" data-source-line="8" id="msg1"><polygon fill="#181818" points="261.1431,220.2891,251.1431,224.2891,261.1431,228.2891,257.1431,224.2891" style="stroke:#181818;stroke-width:1;"/><line style="stroke:#181818;stroke-width:1;" x1="255.1431" x2="496.3838" y1="224.2891" y2="224.2891"/><text fill="#000000" font-family="sans-serif" font-size="13" lengthAdjust="spacing" textLength="44.478" x="267.1431" y="204.0903">Pays G</text><text fill="#000000" font-family="sans-serif" font-size="13" lengthAdjust="spacing" textLength="223.2407" x="267.1431" y="219.2231">(new government money created)</text></g><rect fill="#EEEEEE" height="3" style="stroke:#EEEEEE;stroke-width:1;" width="553.1611" x="0" y="252.8555"/><line style="stroke:#000000;stroke-width:1;" x1="0" x2="553.1611" y1="252.8555" y2="252.8555"/><line style="stroke:#000000;stroke-width:1;" x1="0" x2="553.1611" y1="255.8555" y2="255.8555"/><rect fill="#EEEEEE" height="23.1328" style="stroke:#000000;stroke-width:2;" width="247.7842" x="152.6885" y="242.2891"/><text fill="#000000" font-family="sans-serif" font-size="13" font-weight="700" lengthAdjust="spacing" textLength="229.2583" x="158.6885" y="258.356">2. Production &amp; Wage Payment</text><g class="message" data-entity-1="part2" data-entity-2="part1" data-source-line="11" id="msg2"><polygon fill="#181818" points="60.6909,307.6875,50.6909,311.6875,60.6909,315.6875,56.6909,311.6875" style="stroke:#181818;stroke-width:1;"/><line style="stroke:#181818;stroke-width:1;" x1="54.6909" x2="249.1431" y1="311.6875" y2="311.6875"/><text fill="#000000" font-family="sans-serif" font-size="13" lengthAdjust="spacing" textLength="101.9307" x="66.6909" y="291.4888">Pays wages WB</text><text fill="#000000" font-family="sans-serif" font-size="13" lengthAdjust="spacing" textLength="88.4165" x="66.6909" y="306.6216">(WB = W * N)</text></g><rect fill="#EEEEEE" height="3" style="stroke:#EEEEEE;stroke-width:1;" width="553.1611" x="0" y="340.2539"/><line style="stroke:#000000;stroke-width:1;" x1="0" x2="553.1611" y1="340.2539" y2="340.2539"/><line style="stroke:#000000;stroke-width:1;" x1="0" x2="553.1611" y1="343.2539" y2="343.2539"/><rect fill="#EEEEEE" height="23.1328" style="stroke:#000000;stroke-width:2;" width="132.1934" x="210.4839" y="329.6875"/><text fill="#000000" font-family="sans-serif" font-size="13" font-weight="700" lengthAdjust="spacing" textLength="113.6675" x="216.4839" y="345.7544">3. Tax Payment</text><g class="message" data-entity-1="part1" data-entity-2="part3" data-source-line="14" id="msg3"><polygon fill="#181818" points="485.3838,395.0859,495.3838,399.0859,485.3838,403.0859,489.3838,399.0859" style="stroke:#181818;stroke-width:1;"/><line style="stroke:#181818;stroke-width:1;" x1="49.6909" x2="491.3838" y1="399.0859" y2="399.0859"/><text fill="#000000" font-family="sans-serif" font-size="13" lengthAdjust="spacing" textLength="82.0054" x="56.6909" y="378.8872">Pays taxes T</text><text fill="#000000" font-family="sans-serif" font-size="13" lengthAdjust="spacing" textLength="81.7324" x="56.6909" y="394.02">(T = &#952; * WB)</text></g><path d="M54,412.0859 L54,452.0859 L202,452.0859 L202,422.0859 L192,412.0859 L54,412.0859" fill="#FEFFDD" style="stroke:#181818;stroke-width:0.5;"/><path d="M192,412.0859 L192,422.0859 L202,422.0859 L192,412.0859" fill="#FEFFDD" style="stroke:#181818;stroke-width:0.5;"/><text fill="#000000" font-family="sans-serif" font-size="13" lengthAdjust="spacing" textLength="127.3276" x="60" y="429.1528">Disposable income:</text><text fill="#000000" font-family="sans-serif" font-size="13" lengthAdjust="spacing" textLength="79.7773" x="60" y="444.2856">YD = WB - T</text><rect fill="#EEEEEE" height="3" style="stroke:#EEEEEE;stroke-width:1;" width="553.1611" x="0" y="477.918"/><line style="stroke:#000000;stroke-width:1;" x1="0" x2="553.1611" y1="477.918" y2="477.918"/><line style="stroke:#000000;stroke-width:1;" x1="0" x2="553.1611" y1="480.918" y2="480.918"/><rect fill="#EEEEEE" height="23.1328" style="stroke:#000000;stroke-width:2;" width="133.4629" x="209.8491" y="467.3516"/><text fill="#000000" font-family="sans-serif" font-size="13" font-weight="700" lengthAdjust="spacing" textLength="114.937" x="215.8491" y="483.4185">4. Consumption</text><g class="message" data-entity-1="part1" data-entity-2="part2" data-source-line="22" id="msg4"><polygon fill="#181818" points="238.1431,532.75,248.1431,536.75,238.1431,540.75,242.1431,536.75" style="stroke:#181818;stroke-width:1;"/><line style="stroke:#181818;stroke-width:1;" x1="49.6909" x2="244.1431" y1="536.75" y2="536.75"/><text fill="#000000" font-family="sans-serif" font-size="13" lengthAdjust="spacing" textLength="176.4521" x="56.6909" y="516.5513">Buys consumption goods C</text><text fill="#000000" font-family="sans-serif" font-size="13" lengthAdjust="spacing" textLength="133.1611" x="56.6909" y="531.6841">(C = &#945;&#8321;&#183;YD + &#945;&#8322;&#183;H&#8331;&#8321;)</text></g><path d="M255,549.75 L255,604.75 L406,604.75 L406,559.75 L396,549.75 L255,549.75" fill="#FEFFDD" style="stroke:#181818;stroke-width:0.5;"/><path d="M396,549.75 L396,559.75 L406,559.75 L396,549.75" fill="#FEFFDD" style="stroke:#181818;stroke-width:0.5;"/><text fill="#000000" font-family="sans-serif" font-size="13" lengthAdjust="spacing" textLength="130.9331" x="261" y="566.8169">Accounting identity:</text><text fill="#000000" font-family="sans-serif" font-size="13" lengthAdjust="spacing" textLength="65.4063" x="261" y="581.9497">Y = C + G</text><text fill="#000000" font-family="sans-serif" font-size="13" lengthAdjust="spacing" textLength="93.5898" x="261" y="597.0825">(output / GDP)</text><rect fill="#EEEEEE" height="3" style="stroke:#EEEEEE;stroke-width:1;" width="553.1611" x="0" y="630.7148"/><line style="stroke:#000000;stroke-width:1;" x1="0" x2="553.1611" y1="630.7148" y2="630.7148"/><line style="stroke:#000000;stroke-width:1;" x1="0" x2="553.1611" y1="633.7148" y2="633.7148"/><rect fill="#EEEEEE" height="23.1328" style="stroke:#000000;stroke-width:2;" width="333.0522" x="110.0544" y="620.1484"/><text fill="#000000" font-family="sans-serif" font-size="13" font-weight="700" lengthAdjust="spacing" textLength="314.5264" x="116.0544" y="636.2153">5. Money Stock Changes (SFC consistency)</text><g class="message" data-entity-1="part1" data-entity-2="part3" data-source-line="31" id="msg5"><polygon fill="#181818" points="485.3838,685.5469,495.3838,689.5469,485.3838,693.5469,489.3838,689.5469" style="stroke:#181818;stroke-width:1;"/><line style="stroke:#181818;stroke-width:1;" x1="49.6909" x2="491.3838" y1="689.5469" y2="689.5469"/><text fill="#000000" font-family="sans-serif" font-size="13" lengthAdjust="spacing" textLength="83.0654" x="56.6909" y="669.3481">&#916;H&#688; = YD - C</text><text fill="#000000" font-family="sans-serif" font-size="13" lengthAdjust="spacing" textLength="253.1064" x="56.6909" y="684.481">(change in household money holdings)</text></g><g class="message" data-entity-1="part3" data-entity-2="part1" data-source-line="33" id="msg6"><polygon fill="#181818" points="60.6909,729.8125,50.6909,733.8125,60.6909,737.8125,56.6909,733.8125" style="stroke:#181818;stroke-width:1;"/><line style="stroke:#181818;stroke-width:1;" x1="54.6909" x2="496.3838" y1="733.8125" y2="733.8125"/><text fill="#000000" font-family="sans-serif" font-size="13" lengthAdjust="spacing" textLength="73.6455" x="66.6909" y="713.6138">&#916;H&#738; = G - T</text><text fill="#000000" font-family="sans-serif" font-size="13" lengthAdjust="spacing" textLength="169.603" x="66.6909" y="728.7466">(change in money supply)</text></g><path d="M5,746.8125 L5,801.8125 L542,801.8125 L542,756.8125 L532,746.8125 L5,746.8125" fill="#FEFFDD" style="stroke:#181818;stroke-width:0.5;"/><path d="M532,746.8125 L532,756.8125 L542,756.8125 L532,746.8125" fill="#FEFFDD" style="stroke:#181818;stroke-width:0.5;"/><text fill="#000000" font-family="sans-serif" font-size="13" lengthAdjust="spacing" textLength="216.8677" x="160.6467" y="763.8794">Stock-flow consistency condition:</text><text fill="#000000" font-family="sans-serif" font-size="13" lengthAdjust="spacing" textLength="66.5996" x="160.6467" y="779.0122">&#916;H&#688; &#8801; &#916;H&#738;</text><text fill="#000000" font-family="sans-serif" font-size="13" lengthAdjust="spacing" textLength="116.2256" x="160.6467" y="794.145">(hidden equation)</text><rect fill="#EEEEEE" height="3" style="stroke:#EEEEEE;stroke-width:1;" width="553.1611" x="0" y="827.7773"/><line style="stroke:#000000;stroke-width:1;" x1="0" x2="553.1611" y1="827.7773" y2="827.7773"/><line style="stroke:#000000;stroke-width:1;" x1="0" x2="553.1611" y1="830.7773" y2="830.7773"/><rect fill="#EEEEEE" height="23.1328" style="stroke:#000000;stroke-width:2;" width="117.0542" x="218.0535" y="817.2109"/><text fill="#000000" font-family="sans-serif" font-size="13" font-weight="700" lengthAdjust="spacing" textLength="98.5283" x="224.0535" y="833.2778">End of Period</text><path d="M54,855.3438 L54,895.3438 L195,895.3438 L195,865.3438 L185,855.3438 L54,855.3438" fill="#FEFFDD" style="stroke:#181818;stroke-width:0.5;"/><path d="M185,855.3438 L185,865.3438 L195,865.3438 L185,855.3438" fill="#FEFFDD" style="stroke:#181818;stroke-width:0.5;"/><text fill="#000000" font-family="sans-serif" font-size="13" lengthAdjust="spacing" textLength="108.3354" x="60" y="872.4106">Wealth updated:</text><text fill="#000000" font-family="sans-serif" font-size="13" lengthAdjust="spacing" textLength="120.0659" x="60" y="887.5435">H = H&#8331;&#8321; + (YD - C)</text><?plantuml-src XPF1RXCn48Rl-nHpGWaeeHGGKgKWaKsJ854KAP5MIBqOhxjhiUjPrdQJFP9RnPKNQ9y0JkNS8qXzY3m9OpjHDbI2cstDVFFFFsCZJI5WWcaX6dW4xzWbIW6TuwEZLrtemHccee3vsxDpDPTbLGXjO6wGV-gD2rn2Z4fBROGosyYbD3dHBaMjol2gH1D5Z1kiOOfMYnoBL4SLgutaic8KCvPrUVYo1qJHO03F-ctawQeIAfN6rgHJh30JYhXT60oYLbJlTU322SnOes5ohZfAB27RXvHE6_1QC2FIhgzqt8TPZQdbHg8YEnAM2PVluwb0G19xtygkm992DIH3gfCCOG09F8RtWVgy3mksQdDQwGHhoTx235iHR46i1Q7kVn8h6H9CeH5GoomtW1TjFm56KbUesKUQfbGSIt52Znz6JicG1hc8o3Hm-LxIYxwVdIqht-a3IJllXfRKy5PaXaWHCIcBdR8Vc_MNkrigyyIVrtUtqytwApq-41kc3F26SxJAI9M1JAbbQHglb6WnKIPqxg0rbJNm52QZMVTG-Cj-sAcmXH3dJ3dVE_Dnx7NwRUHDzpyktt-R_lfE9KbvptV3FOYiWtoNjLqGToIrcZewtA-37I3Wxni2JfpN1xn0qRQgYcRd2kCrQkT6-4iNxY-rrBipRJZvxQm9MZTNrw68CoYNANa7uhDbBkelZqxfGexFH2qnTKRyOsqImGhwihPAtIzmvQRKnNQ8D8zES6XVuGy0?></g></svg>